
<svg version="1.1" id="Layer_2" xmlns="http://www.w3.org/2000/svg" xmlns:xlink="http://www.w3.org/1999/xlink" x="0px" y="0px"
	 viewBox="0 0 1817.9 609.5" style="enable-background:new 0 0 1817.9 609.5;" xml:space="preserve">
<style type="text/css">
	.st0{fill:#333333;}
	.st1{fill:#D8D8D8;}
</style>

<g id="html">
	<rect style="opacity:0.3" x="32" y="22.5" class="st0" width="275.5" height="273"/>
    <path class="st1" d="M129.3,134.2v42.7h-10.4v-16.8h-16.5v16.8H92v-42.7h10.4v16h16.5v-16H129.3z"/>
	<path class="st1" d="M168.8,144.1h-11.7v32.8h-10.4v-32.8h-11.6v-9.9h33.7V144.1z"/>
	<path class="st1" d="M217.6,134.2v42.7h-10.4v-28.2L196.4,165h-1l-10.7-16.3v28.2h-10.4v-42.7h11.8l9.8,14.6l9.8-14.6H217.6z"/>
	<path class="st1" d="M253.9,167v9.9h-27.8v-42.7h10.4V167H253.9z"/>
</g>
<g>
	<rect id="jquery" x="32" y="460.5" class="st0" width="127" height="127"/>

</g>
<g>
	<rect id="js" x="180.6" y="314.5" class="st0" width="275.4" height="273"/>
</g>
<g>
	<rect id="css" x="477.7" y="168.5" class="st0" width="275.5" height="273"/>
</g>
<g>
	<rect id="mysql" x="477.7" y="460.5" class="st0" width="127" height="127"/>
</g>
<g>
	<rect id="php" x="626.2" y="460.5" class="st0" width="127" height="127"/>
</g>
<g>
	<rect id="seo" x="774.8" y="314.5" class="st0" width="127" height="127"/>
</g>
<g>
	<rect id="wp" x="923.3" y="314.5" class="st0" width="275.5" height="273"/>
</g>
<g>
	<rect id="xd" x="1220.4" y="314.5" class="st0" width="275.6" height="273"/>
</g>
<g>
	<rect id="ps" x="1517.5" y="168.5" class="st0" width="275.5" height="273"/>
</g>
<g>
	<rect id="print" x="1517.5" y="460.5" class="st0" width="127" height="127"/>
</g>
<g>
	<rect id="ae" x="1666.1" y="460.5" class="st0" width="127" height="127"/>
</g>
<g>
	<rect id="ng" x="329.1" y="22.5" class="st0" width="127" height="127"/>
</g>
<g>
	<rect id="xml" x="477.7" y="22.5" class="st0" width="127" height="127"/>
</g>
<g>
	<rect id="bs" x="774.8" y="22.5" class="st0" width="273" height="273"/>
</g>
<g>
	<rect id="svg" x="1071.9" y="22.5" class="st0" width="127" height="127"/>
</g>
<g>
	<rect id="ai" x="1220" y="22.5" class="st0" width="275.9" height="273"/>
</g>
<g>
	<rect id="pp" x="1666.1" y="22.5" class="st0" width="127" height="127"/>
</g>

<g id="csstext">
	<path class="st1" d="M554.2,301.6c0-12.6,9.4-22.1,22.2-22.1c10.5,0,18.5,6.6,20.9,15.8h-11.1c-1.7-3.7-5.2-6-9.7-6
		c-7.1,0-11.7,5.1-11.7,12.3c0,7.1,4.6,12.2,11.7,12.2c4.5,0,8-2.3,9.7-6h11.1c-2.3,9.3-10.3,15.8-20.9,15.8
		C563.5,323.7,554.2,314.1,554.2,301.6z"/>
	<path class="st1" d="M637,310c0,10.4-9.7,13.7-16.5,13.7c-13.1,0-18.1-7.6-18.9-14.9H612c1,3.5,2.9,5.2,8.3,5.2
		c4.2,0,6.1-1.3,6.1-3.6c0-2.5-2.6-2.7-9.7-4.2c-7-1.5-14.1-4-14.1-12.9c0-9.4,8.4-13.9,16.5-13.9c12.1,0,16.7,6.8,17.4,14.1h-10.5
		c-0.6-2.5-2-4.4-6.9-4.4c-4.7,0-6.1,1.9-6.1,3.7c0,2,2,2.3,6.2,3.2C631.3,298.6,637,301.3,637,310z"/>
	<path class="st1" d="M677.3,310c0,10.4-9.7,13.7-16.5,13.7c-13.1,0-18.1-7.6-18.9-14.9h10.5c1,3.5,2.9,5.2,8.3,5.2
		c4.2,0,6.1-1.3,6.1-3.6c0-2.5-2.6-2.7-9.7-4.2c-7-1.5-14.1-4-14.1-12.9c0-9.4,8.4-13.9,16.5-13.9c12.1,0,16.7,6.8,17.4,14.1h-10.5
		c-0.6-2.5-2-4.4-6.9-4.4c-4.7,0-6.1,1.9-6.1,3.7c0,2,2,2.3,6.2,3.2C671.6,298.6,677.3,301.3,677.3,310z"/>
</g>
<g id="jquerytext">
	<path class="st1" d="M52.7,511.9c0,1.7-1.3,2.8-3,2.8c-1.7,0-3-1.2-3-2.8c0-1.6,1.3-2.8,3-2.8C51.5,509,52.7,510.2,52.7,511.9z
		 M47.2,516.6h5v23.2h-5V516.6z"/>
	<path class="st1" d="M73.4,529.5l2.7,3.6l-3.8,2.8l-2.9-3.8c-1.2,0.5-2.6,0.7-4,0.7c-6,0-10.7-4.6-10.7-10.5s4.6-10.5,10.7-10.5
		c6,0,10.7,4.6,10.7,10.5C76.1,525.2,75.1,527.7,73.4,529.5z M65.5,528.2c3.3,0,5.7-2.4,5.7-5.8s-2.4-5.8-5.7-5.8
		c-3.3,0-5.7,2.4-5.7,5.8S62.2,528.2,65.5,528.2z"/>
	<path class="st1" d="M93.9,516.6v16h-5v-1.8c-1.2,1.5-2.7,2.2-4.6,2.2c-3.5,0-5.7-2.5-5.7-6.4v-10h5v8.9c0,1.7,0.5,2.8,2.5,2.8
		c1.9,0,2.9-1,2.9-3.2v-8.5H93.9z"/>
	<path class="st1" d="M113.2,525.6h-11.7c0.2,2.5,1.8,3.5,3.5,3.5c1.3,0,2.4-0.6,2.8-1.8h5.1c-1.1,3.9-4.5,5.6-7.9,5.6
		c-5.1,0-8.6-3.6-8.6-8.4c0-4.7,3.5-8.4,8.4-8.4C110.2,516.2,113.7,520.4,113.2,525.6z M101.7,522.6h6.4c-0.3-1.5-1.4-2.6-3.1-2.6
		S102.1,521.1,101.7,522.6z"/>
	<path class="st1" d="M126.1,516.3v5.1c-0.3,0-0.5-0.1-1-0.1c-2.3,0-4.6,0.7-4.6,4.3v6.9h-5v-16h5v2.5c1-1.9,2.6-2.8,4.7-2.8
		C125.6,516.2,125.9,516.2,126.1,516.3z"/>
	<path class="st1" d="M144.6,516.6l-10.2,23.2h-5.3l4.2-9.5l-6-13.8h5.3l3.4,8.3l3.4-8.3H144.6z"/>
</g>
<g id="printtext">
	<path class="st1" d="M1560.7,518.7c0,4.9-3.3,7.7-8,7.7h-4.1v6.9h-5.4v-22.2h9.6C1557.4,511.1,1560.7,513.8,1560.7,518.7z
		 M1555.2,518.8c0-1.7-0.9-2.5-2.8-2.5h-3.9v5.1h3.9C1554.3,521.3,1555.2,520.5,1555.2,518.8z"/>
	<path class="st1" d="M1575.1,515.6v5.6c-0.4,0-0.6-0.1-1.1-0.1c-2.5,0-5,0.8-5,4.7v7.6h-5.4v-17.5h5.4v2.7c1.1-2.1,2.9-3.1,5.1-3.1
		C1574.5,515.5,1574.8,515.5,1575.1,515.6z"/>
	<path class="st1" d="M1583.3,510.7c0,1.8-1.4,3.1-3.3,3.1c-1.8,0-3.3-1.3-3.3-3.1c0-1.8,1.4-3.1,3.3-3.1
		C1581.9,507.6,1583.3,508.9,1583.3,510.7z M1577.3,515.9h5.4v17.5h-5.4V515.9z"/>
	<path class="st1" d="M1602.7,522.4v10.9h-5.4v-9.7c0-1.9-0.6-3-2.8-3c-2.1,0-3.2,1-3.2,3.5v9.3h-5.4v-17.5h5.4v2
		c1.3-1.6,2.9-2.4,5.1-2.4C1600.4,515.5,1602.7,518.2,1602.7,522.4z"/>
	<path class="st1" d="M1620,532.2c-1,0.7-3.3,1.5-5.5,1.5c-3.4,0-6.7-2-6.7-7.2V521h-3v-5.1h3v-3.6l5.4-1.2v4.8h5.9v5.1h-5.9v5.3
		c0,1.7,0.9,2.5,2.2,2.5c1,0,2.1-0.4,3.6-0.9L1620,532.2z"/>
</g>
<g id="aetext">
	<path class="st1" d="M1706,511.8h-7.1l-1.4,3.9h-4.9l6.9-18.9h5.8l6.9,18.9h-4.9L1706,511.8z M1704.5,507.5l-2-5.9l-2,5.9H1704.5z"
		/>
	<path class="st1" d="M1719.3,500.9L1719.3,500.9l4.5,0v4.3h-4.5v10.5h-4.6v-10.5h-2.5v-4.3h2.5v-0.3c0-4.4,3.3-6,6.3-6
		c1.2,0,2.7,0.3,3.7,0.7l-0.8,3.7l-0.6-0.2c-0.6-0.2-1.2-0.2-1.7-0.2C1720.1,498.6,1719.3,499.3,1719.3,500.9z"/>
	<path class="st1" d="M1738.4,514.8c-0.8,0.6-2.8,1.3-4.7,1.3c-2.9,0-5.7-1.7-5.7-6.1v-4.8h-2.5v-4.3h2.5v-3.1l4.6-1v4h5v4.3h-5v4.5
		c0,1.4,0.7,2.1,1.9,2.1c0.8,0,1.8-0.3,3.1-0.7L1738.4,514.8z"/>
	<path class="st1" d="M1755.2,509.3h-10.9c0.2,2.3,1.7,3.3,3.3,3.3c1.2,0,2.3-0.6,2.6-1.7h4.7c-1,3.7-4.1,5.2-7.4,5.2
		c-4.8,0-8-3.4-8-7.8c0-4.4,3.2-7.8,7.9-7.8C1752.4,500.6,1755.6,504.4,1755.2,509.3z M1744.4,506.5h5.9c-0.3-1.4-1.3-2.4-2.9-2.4
		S1744.8,505.1,1744.4,506.5z"/>
	<path class="st1" d="M1767.2,500.6v4.7c-0.3,0-0.5-0.1-0.9-0.1c-2.2,0-4.3,0.6-4.3,4v6.4h-4.6v-14.8h4.6v2.3
		c0.9-1.8,2.4-2.6,4.3-2.6C1766.7,500.6,1767,500.6,1767.2,500.6z"/>
	<path class="st1" d="M1683.1,533.6v2.8h7.7v4.4h-7.7v3h8.5v4.4h-13.1v-18.9h13.1v4.4H1683.1z"/>
	<path class="st1" d="M1700.2,533.3L1700.2,533.3l4.5,0v4.3h-4.5v10.5h-4.6v-10.5h-2.5v-4.3h2.5V533c0-4.4,3.3-6,6.3-6
		c1.2,0,2.7,0.3,3.7,0.7l-0.8,3.7l-0.6-0.2c-0.6-0.2-1.2-0.2-1.7-0.2C1701,531,1700.2,531.7,1700.2,533.3z"/>
	<path class="st1" d="M1713.5,533.3L1713.5,533.3l4.5,0v4.3h-4.5v10.5h-4.6v-10.5h-2.5v-4.3h2.5V533c0-4.4,3.3-6,6.3-6
		c1.2,0,2.7,0.3,3.7,0.7l-0.8,3.7l-0.6-0.2c-0.6-0.2-1.2-0.2-1.7-0.2C1714.3,531,1713.5,531.7,1713.5,533.3z"/>
	<path class="st1" d="M1735.2,541.7h-10.9c0.2,2.3,1.7,3.3,3.3,3.3c1.2,0,2.3-0.6,2.6-1.7h4.7c-1,3.7-4.1,5.2-7.4,5.2
		c-4.8,0-8-3.4-8-7.8c0-4.4,3.2-7.8,7.9-7.8C1732.5,533,1735.7,536.8,1735.2,541.7z M1724.5,538.9h5.9c-0.3-1.4-1.3-2.4-2.9-2.4
		C1725.9,536.5,1724.9,537.5,1724.5,538.9z"/>
	<path class="st1" d="M1737.2,540.7c0-4.4,3.3-7.8,7.8-7.8c3.7,0,7,2.2,7.5,6.2h-4.7c-0.4-1.4-1.5-2-2.8-2c-2,0-3.2,1.5-3.2,3.5
		c0,2.1,1.2,3.5,3.1,3.5c1.2,0,2.4-0.6,2.8-2h4.7c-0.5,4.1-3.9,6.2-7.5,6.2C1740.4,548.5,1737.2,545.1,1737.2,540.7z"/>
	<path class="st1" d="M1766.8,547.2c-0.8,0.6-2.8,1.3-4.7,1.3c-2.9,0-5.7-1.7-5.7-6.1v-4.8h-2.5v-4.3h2.5v-3.1l4.6-1v4h5v4.3h-5v4.5
		c0,1.4,0.7,2.1,1.9,2.1c0.8,0,1.8-0.3,3.1-0.7L1766.8,547.2z"/>
	<path class="st1" d="M1767.9,543.5h4.7c0.2,0.8,0.8,1.6,2.9,1.6c1.5,0,2-0.4,2-1c0-0.6-0.5-0.7-3-1.3c-4.3-0.9-6-2.1-6-4.7
		c0-3.2,2.6-5.1,6.9-5.1c4.2,0,6.3,1.8,6.7,4.6h-4.7c-0.2-0.7-0.8-1.2-2.3-1.2c-1.4,0-2,0.4-2,1.1c0,0.5,0.4,0.6,2.2,0.9
		c4.4,1,6.9,1.9,6.9,4.9c0,3.4-3,5.1-6.8,5.1C1771.4,548.5,1768.4,546.6,1767.9,543.5z"/>
</g>
<g id="pptext">
	<path class="st1" d="M1692,62.3c0,4.2-2.8,6.6-6.8,6.6h-3.5v5.8h-4.6V55.9h8.1C1689.2,55.9,1692,58.1,1692,62.3z M1687.3,62.4
		c0-1.4-0.8-2.2-2.4-2.2h-3.3v4.3h3.3C1686.6,64.5,1687.3,63.8,1687.3,62.4z"/>
	<path class="st1" d="M1704.2,59.6v4.7c-0.3,0-0.5-0.1-0.9-0.1c-2.2,0-4.3,0.6-4.3,4v6.4h-4.6V59.9h4.6v2.3c0.9-1.8,2.4-2.6,4.3-2.6
		C1703.8,59.6,1704,59.6,1704.2,59.6z"/>
	<path class="st1" d="M1721.2,68.3h-10.9c0.2,2.3,1.7,3.3,3.3,3.3c1.2,0,2.3-0.6,2.6-1.7h4.7c-1,3.7-4.1,5.2-7.4,5.2
		c-4.8,0-8-3.4-8-7.8c0-4.4,3.2-7.8,7.9-7.8C1718.4,59.6,1721.6,63.4,1721.2,68.3z M1710.4,65.5h5.9c-0.3-1.4-1.3-2.4-2.9-2.4
		S1710.8,64.1,1710.4,65.5z"/>
	<path class="st1" d="M1746.9,65.5v9.3h-4.6v-8.3c0-1.6-0.5-2.6-2.2-2.6c-1.7,0-2.6,0.9-2.6,2.9v7.9h-4.6v-8.3
		c0-1.6-0.5-2.6-2.2-2.6c-1.7,0-2.6,0.9-2.6,2.9v7.9h-4.6V59.9h4.6v1.7c1.1-1.3,2.5-2,4.2-2c2,0,3.6,0.9,4.5,2.6
		c1.1-1.6,2.9-2.6,4.9-2.6C1744.8,59.6,1746.9,61.8,1746.9,65.5z"/>
	<path class="st1" d="M1754.5,55.5c0,1.5-1.2,2.6-2.8,2.6c-1.6,0-2.8-1.1-2.8-2.6c0-1.5,1.2-2.6,2.8-2.6
		C1753.4,52.9,1754.5,54,1754.5,55.5z M1749.4,59.9h4.6v14.8h-4.6V59.9z"/>
	<path class="st1" d="M1772.1,68.3h-10.9c0.2,2.3,1.7,3.3,3.3,3.3c1.2,0,2.3-0.6,2.6-1.7h4.7c-1,3.7-4.1,5.2-7.4,5.2
		c-4.8,0-8-3.4-8-7.8c0-4.4,3.2-7.8,7.9-7.8C1769.3,59.6,1772.5,63.4,1772.1,68.3z M1761.3,65.5h5.9c-0.3-1.4-1.3-2.4-2.9-2.4
		S1761.7,64.1,1761.3,65.5z"/>
	<path class="st1" d="M1784.1,59.6v4.7c-0.3,0-0.5-0.1-0.9-0.1c-2.2,0-4.3,0.6-4.3,4v6.4h-4.6V59.9h4.6v2.3c0.9-1.8,2.4-2.6,4.3-2.6
		C1783.6,59.6,1783.8,59.6,1784.1,59.6z"/>
	<path class="st1" d="M1723.2,94.7c0,4.2-2.8,6.6-6.8,6.6h-3.5v5.8h-4.6V88.3h8.1C1720.3,88.3,1723.2,90.5,1723.2,94.7z
		 M1718.5,94.8c0-1.4-0.8-2.2-2.4-2.2h-3.3v4.3h3.3C1717.7,96.9,1718.5,96.2,1718.5,94.8z"/>
	<path class="st1" d="M1735.4,92v4.7c-0.3,0-0.5-0.1-0.9-0.1c-2.2,0-4.3,0.6-4.3,4v6.4h-4.6V92.3h4.6v2.3c0.9-1.8,2.4-2.6,4.3-2.6
		C1734.9,92,1735.2,92,1735.4,92z"/>
	<path class="st1" d="M1752.4,99.7c0,4.5-3.4,7.8-7.8,7.8c-4.4,0-7.8-3.3-7.8-7.8c0-4.5,3.5-7.8,7.8-7.8S1752.4,95.2,1752.4,99.7z
		 M1741.4,99.7c0,2.1,1.4,3.4,3.1,3.4c1.8,0,3.1-1.3,3.1-3.4c0-2.1-1.4-3.4-3.1-3.4S1741.4,97.7,1741.4,99.7z"/>
</g>
<g id="jstext">
	<path class="st1" d="M223.8,434.5v18.8c0,6.8-4.7,10.2-10.3,10.2c-5.5,0-10.1-3.3-10.1-10.1v-1.3h7v1.1c0,3.2,1.4,3.7,3.1,3.7
		c1.7,0,3.3-0.6,3.3-3.8v-18.6H223.8z"/>
	<path class="st1" d="M251.8,440.6l0,22.3h-6.9v-2.4c-1.4,1.7-3.5,2.9-6.3,2.9c-5.7,0-10.1-4.8-10.1-11.7c0-6.9,4.5-11.7,10.1-11.7
		c2.9,0,5,1.2,6.4,3v-2.5H251.8z M244.8,451.8c0-3.1-2-5.1-4.7-5.1c-2.7,0-4.7,2-4.7,5.1c0,3.1,2.1,5.1,4.7,5.1
		C242.8,456.9,244.8,454.9,244.8,451.8z"/>
	<path class="st1" d="M277.6,440.6l-7.4,22.3H262l-7.4-22.3h7.4l4.1,14.6l4.1-14.6H277.6z"/>
	<path class="st1" d="M302.1,440.6l0,22.3h-6.9v-2.4c-1.4,1.7-3.5,2.9-6.3,2.9c-5.7,0-10.1-4.8-10.1-11.7c0-6.9,4.5-11.7,10.1-11.7
		c2.9,0,5,1.2,6.4,3v-2.5H302.1z M295.1,451.8c0-3.1-2-5.1-4.7-5.1c-2.7,0-4.7,2-4.7,5.1c0,3.1,2.1,5.1,4.7,5.1
		C293.1,456.9,295.1,454.9,295.1,451.8z"/>
	<path class="st1" d="M329.2,454.3c0,6.9-6.4,9.1-11,9.1c-8.7,0-12-5.1-12.6-9.9h7c0.7,2.4,1.9,3.5,5.5,3.5c2.8,0,4.1-0.9,4.1-2.4
		c0-1.7-1.7-1.8-6.5-2.8c-4.7-1-9.4-2.7-9.4-8.6c0-6.3,5.6-9.3,11-9.3c8.1,0,11.1,4.5,11.6,9.4h-7c-0.4-1.7-1.3-3-4.6-3
		c-3.1,0-4,1.3-4,2.5c0,1.3,1.3,1.5,4.1,2.1C325.4,446.7,329.2,448.5,329.2,454.3z"/>
	<path class="st1" d="M332.2,451.8c0-6.6,4.9-11.7,11.8-11.7c5.6,0,10.6,3.4,11.3,9.3h-7.1c-0.5-2.2-2.3-3-4.2-3
		c-3.1,0-4.8,2.2-4.8,5.3c0,3.2,1.8,5.3,4.7,5.3c1.9,0,3.7-0.9,4.2-3h7.1c-0.7,6.2-5.9,9.4-11.3,9.4
		C337.1,463.5,332.2,458.4,332.2,451.8z"/>
	<path class="st1" d="M373.3,440.2v7.1c-0.4,0-0.7-0.1-1.4-0.1c-3.3,0-6.4,1-6.4,6.1v9.7h-6.9v-22.3h6.9v3.5c1.4-2.7,3.7-4,6.5-4
		C372.6,440.1,373,440.1,373.3,440.2z"/>
	<path class="st1" d="M383.8,434c0,2.3-1.8,4-4.2,4c-2.4,0-4.2-1.7-4.2-4c0-2.3,1.8-3.9,4.2-3.9C382.1,430,383.8,431.7,383.8,434z
		 M376.1,440.6h6.9v22.3h-6.9V440.6z"/>
	<path class="st1" d="M410.8,451.8c0,6.9-4.4,11.7-10.1,11.7c-2.9,0-4.9-1.2-6.4-2.9v12.6h-6.9v-32.5h6.9v2.5c1.4-1.8,3.5-3,6.4-3
		C406.3,440.1,410.8,444.8,410.8,451.8z M403.8,451.8c0-3.1-2-5.1-4.7-5.1c-2.7,0-4.7,2-4.7,5.1c0,3.1,2,5.1,4.7,5.1
		C401.7,456.9,403.8,454.9,403.8,451.8z"/>
	<path class="st1" d="M432.7,461.5c-1.3,0.9-4.2,2-7,2c-4.3,0-8.6-2.5-8.6-9.2v-7.2h-3.8v-6.5h3.8V436l6.9-1.5v6.1h7.5v6.5H424v6.8
		c0,2.2,1.1,3.2,2.9,3.2c1.2,0,2.7-0.5,4.6-1.1L432.7,461.5z"/>
</g>
<g id="pstext">
	<path class="st1" d="M1567.1,298.2c0,6.3-4.2,9.9-10.3,9.9h-5.3v8.8h-6.9v-28.4h12.2C1562.9,288.5,1567.1,291.9,1567.1,298.2z
		 M1560.1,298.3c0-2.2-1.2-3.3-3.5-3.3h-5v6.5h5C1558.9,301.6,1560.1,300.5,1560.1,298.3z"/>
	<path class="st1" d="M1592.4,303v14h-6.9v-12.4c0-2.4-0.7-3.9-3.5-3.9c-2.7,0-4.1,1.3-4.1,4.4v11.9h-6.9v-31.3h6.9v11.5
		c1.6-2,3.7-3,6.5-3C1589.4,294.1,1592.4,297.5,1592.4,303z"/>
	<path class="st1" d="M1619.4,305.8c0,6.7-5.2,11.7-11.8,11.7s-11.8-5-11.8-11.7c0-6.7,5.3-11.7,11.8-11.7S1619.4,299,1619.4,305.8z
		 M1602.9,305.8c0,3.1,2.1,5.1,4.7,5.1c2.7,0,4.7-2,4.7-5.1c0-3.1-2-5.1-4.7-5.1C1605,300.6,1602.9,302.7,1602.9,305.8z"/>
	<path class="st1" d="M1640.9,315.5c-1.3,0.9-4.2,2-7,2c-4.3,0-8.6-2.5-8.6-9.2v-7.2h-3.8v-6.5h3.8V290l6.9-1.5v6.1h7.5v6.5h-7.5
		v6.8c0,2.2,1.1,3.2,2.9,3.2c1.2,0,2.7-0.5,4.6-1.1L1640.9,315.5z"/>
	<path class="st1" d="M1666.2,305.8c0,6.7-5.2,11.7-11.8,11.7s-11.8-5-11.8-11.7c0-6.7,5.3-11.7,11.8-11.7S1666.2,299,1666.2,305.8z
		 M1649.7,305.8c0,3.1,2.1,5.1,4.7,5.1c2.7,0,4.7-2,4.7-5.1c0-3.1-2-5.1-4.7-5.1C1651.8,300.6,1649.7,302.7,1649.7,305.8z"/>
	<path class="st1" d="M1668.9,309.9h7c0.3,1.2,1.2,2.4,4.4,2.4c2.3,0,3.1-0.6,3.1-1.5c0-0.9-0.7-1.1-4.5-1.9c-6.4-1.4-9-3.1-9-7
		c0-4.8,3.9-7.7,10.4-7.7c6.3,0,9.4,2.7,10.1,7h-7c-0.3-1.1-1.2-1.8-3.4-1.8c-2,0-3.1,0.6-3.1,1.6c0,0.8,0.7,0.9,3.3,1.4
		c6.7,1.5,10.3,2.8,10.3,7.4c0,5.2-4.5,7.7-10.3,7.7C1674.1,317.5,1669.7,314.6,1668.9,309.9z"/>
	<path class="st1" d="M1715.6,303v14h-6.9v-12.4c0-2.4-0.7-3.9-3.5-3.9c-2.7,0-4.1,1.3-4.1,4.4v11.9h-6.9v-31.3h6.9v11.5
		c1.6-2,3.7-3,6.5-3C1712.6,294.1,1715.6,297.5,1715.6,303z"/>
	<path class="st1" d="M1742.6,305.8c0,6.7-5.2,11.7-11.8,11.7s-11.8-5-11.8-11.7c0-6.7,5.3-11.7,11.8-11.7S1742.6,299,1742.6,305.8z
		 M1726.1,305.8c0,3.1,2.1,5.1,4.7,5.1c2.7,0,4.7-2,4.7-5.1c0-3.1-2-5.1-4.7-5.1C1728.1,300.6,1726.1,302.7,1726.1,305.8z"/>
	<path class="st1" d="M1769.9,305.8c0,6.9-4.4,11.7-10.1,11.7c-2.9,0-4.9-1.2-6.4-2.9v12.6h-6.9v-32.5h6.9v2.5c1.4-1.8,3.5-3,6.4-3
		C1765.4,294.1,1769.9,298.8,1769.9,305.8z M1762.9,305.8c0-3.1-2-5.1-4.7-5.1c-2.7,0-4.7,2-4.7,5.1c0,3.1,2,5.1,4.7,5.1
		C1760.8,310.9,1762.9,308.9,1762.9,305.8z"/>
</g>
<g id="xdtext">
	<path class="st1" d="M1275.1,457.1h-10.7l-2,5.9h-7.3l10.4-28.4h8.7l10.4,28.4h-7.3L1275.1,457.1z M1272.8,450.5l-3.1-8.9l-3.1,8.9
		H1272.8z"/>
	<path class="st1" d="M1309.3,431.7v31.3h-6.9v-2.4c-1.5,1.7-3.5,2.9-6.4,2.9c-5.7,0-10.1-4.8-10.1-11.7c0-6.9,4.5-11.7,10.1-11.7
		c2.9,0,5,1.2,6.4,3v-11.5H1309.3z M1302.4,451.8c0-3.1-2-5.1-4.7-5.1s-4.7,2-4.7,5.1c0,3.1,2.1,5.1,4.7,5.1
		C1300.4,456.9,1302.4,454.9,1302.4,451.8z"/>
	<path class="st1" d="M1336.5,451.8c0,6.7-5.2,11.7-11.8,11.7s-11.8-5-11.8-11.7c0-6.7,5.3-11.7,11.8-11.7S1336.5,445,1336.5,451.8z
		 M1320,451.8c0,3.1,2.1,5.1,4.7,5.1c2.7,0,4.7-2,4.7-5.1c0-3.1-2-5.1-4.7-5.1C1322.1,446.6,1320,448.7,1320,451.8z"/>
	<path class="st1" d="M1363.6,451.8c0,6.9-4.4,11.7-10.1,11.7c-2.9,0-4.9-1.2-6.4-2.9v2.4h-6.9v-31.3h6.9v11.5c1.4-1.8,3.5-3,6.4-3
		C1359.1,440.1,1363.6,444.8,1363.6,451.8z M1356.6,451.8c0-3.1-2-5.1-4.7-5.1c-2.7,0-4.7,2-4.7,5.1c0,3.1,2,5.1,4.7,5.1
		C1354.5,456.9,1356.6,454.9,1356.6,451.8z"/>
	<path class="st1" d="M1390.3,453.2h-16.4c0.3,3.5,2.5,4.9,4.9,4.9c1.9,0,3.4-0.9,4-2.5h7.1c-1.5,5.5-6.2,7.8-11.1,7.8
		c-7.2,0-12-5.1-12-11.7c0-6.6,4.9-11.7,11.8-11.7C1386.1,440.1,1391,445.9,1390.3,453.2z M1374.1,449h8.9c-0.4-2.2-1.9-3.7-4.4-3.7
		S1374.7,446.9,1374.1,449z"/>
	<path class="st1" d="M1423.4,462.9l-5.2-8.9l-5.1,8.9h-8.2l9.1-14.8l-8.7-13.7h8.2l4.8,8.2l4.8-8.2h8.2l-8.9,14.2l9.1,14.3H1423.4z
		"/>
	<path class="st1" d="M1460.8,448.7c0,8.1-6.3,14.2-14.6,14.2h-10.6v-28.4h10.6C1454.5,434.5,1460.8,440.6,1460.8,448.7z
		 M1453.8,448.7c0-4.6-3.1-7.6-7.7-7.6h-3.7v15.3h3.7C1450.7,456.4,1453.8,453.2,1453.8,448.7z"/>
</g>
<g id="wptext">
	<path class="st1" d="M990.5,434.5l-6.9,28.4h-8.5l-2.5-10.3l-1.5-10l-0.7,0l-1.4,10.1l-2.5,10.3h-8.6l-6.9-28.4h7.1l3.3,13.6
		l0.9,6.6l0.9-6.6l3.3-13.6h8.7l3.3,13.6l0.9,6.8l0.9-6.8l3.3-13.6H990.5z"/>
	<path class="st1" d="M1014.6,451.8c0,6.7-5.2,11.7-11.8,11.7s-11.8-5-11.8-11.7c0-6.7,5.3-11.7,11.8-11.7S1014.6,445,1014.6,451.8z
		 M998.1,451.8c0,3.1,2.1,5.1,4.7,5.1c2.7,0,4.7-2,4.7-5.1c0-3.1-2-5.1-4.7-5.1C1000.2,446.6,998.1,448.7,998.1,451.8z"/>
	<path class="st1" d="M1033,440.2v7.1c-0.4,0-0.7-0.1-1.4-0.1c-3.3,0-6.4,1-6.4,6.1v9.7h-6.9v-22.3h6.9v3.5c1.4-2.7,3.7-4,6.5-4
		C1032.3,440.1,1032.7,440.1,1033,440.2z"/>
	<path class="st1" d="M1058.9,431.7v31.3h-6.9v-2.4c-1.5,1.7-3.5,2.9-6.4,2.9c-5.7,0-10.1-4.8-10.1-11.7c0-6.9,4.5-11.7,10.1-11.7
		c2.9,0,5,1.2,6.4,3v-11.5H1058.9z M1051.9,451.8c0-3.1-2-5.1-4.7-5.1s-4.7,2-4.7,5.1c0,3.1,2.1,5.1,4.7,5.1
		C1049.9,456.9,1051.9,454.9,1051.9,451.8z"/>
	<path class="st1" d="M1086.6,451.8c0,6.9-4.4,11.7-10.1,11.7c-2.9,0-4.9-1.2-6.4-2.9v12.6h-6.9v-32.5h6.9v2.5c1.4-1.8,3.5-3,6.4-3
		C1082.1,440.1,1086.6,444.8,1086.6,451.8z M1079.6,451.8c0-3.1-2-5.1-4.7-5.1c-2.7,0-4.7,2-4.7,5.1c0,3.1,2,5.1,4.7,5.1
		C1077.5,456.9,1079.6,454.9,1079.6,451.8z"/>
	<path class="st1" d="M1105,440.2v7.1c-0.4,0-0.7-0.1-1.4-0.1c-3.3,0-6.4,1-6.4,6.1v9.7h-6.9v-22.3h6.9v3.5c1.4-2.7,3.7-4,6.5-4
		C1104.2,440.1,1104.7,440.1,1105,440.2z"/>
	<path class="st1" d="M1130.4,453.2h-16.4c0.3,3.5,2.5,4.9,4.9,4.9c1.9,0,3.4-0.9,4-2.5h7.1c-1.5,5.5-6.2,7.8-11.1,7.8
		c-7.2,0-12-5.1-12-11.7c0-6.6,4.9-11.7,11.8-11.7C1126.3,440.1,1131.1,445.9,1130.4,453.2z M1114.3,449h8.9
		c-0.4-2.2-1.9-3.7-4.4-3.7S1114.9,446.9,1114.3,449z"/>
	<path class="st1" d="M1132.8,455.9h7c0.3,1.2,1.2,2.4,4.4,2.4c2.3,0,3.1-0.6,3.1-1.5c0-0.9-0.7-1.1-4.5-1.9c-6.4-1.4-9-3.1-9-7
		c0-4.8,3.9-7.7,10.4-7.7c6.3,0,9.4,2.7,10.1,7h-7c-0.3-1.1-1.2-1.8-3.4-1.8c-2,0-3.1,0.6-3.1,1.6c0,0.8,0.7,0.9,3.3,1.4
		c6.7,1.5,10.3,2.8,10.3,7.4c0,5.2-4.5,7.7-10.3,7.7C1138,463.5,1133.6,460.6,1132.8,455.9z"/>
	<path class="st1" d="M1156.8,455.9h7c0.3,1.2,1.2,2.4,4.4,2.4c2.3,0,3.1-0.6,3.1-1.5c0-0.9-0.7-1.1-4.5-1.9c-6.4-1.4-9-3.1-9-7
		c0-4.8,3.9-7.7,10.4-7.7c6.3,0,9.4,2.7,10.1,7h-7c-0.3-1.1-1.2-1.8-3.4-1.8c-2,0-3.1,0.6-3.1,1.6c0,0.8,0.7,0.9,3.3,1.4
		c6.7,1.5,10.3,2.8,10.3,7.4c0,5.2-4.5,7.7-10.3,7.7C1162.1,463.5,1157.7,460.6,1156.8,455.9z"/>
</g>
<g id="aitext">
	<path class="st1" d="M1253.3,142.5h6.9v28.4h-6.9V142.5z"/>
	<path class="st1" d="M1265.1,139.6h6.9v31.3h-6.9V139.6z"/>
	<path class="st1" d="M1276.1,139.6h6.9v31.3h-6.9V139.6z"/>
	<path class="st1" d="M1308.3,148.6v22.3h-6.9v-2.6c-1.6,2-3.7,3.1-6.4,3.1c-4.9,0-8-3.5-8-8.9v-14h6.9V161c0,2.4,0.7,3.9,3.5,3.9
		c2.7,0,4-1.3,4-4.4v-11.9H1308.3z"/>
	<path class="st1" d="M1311.3,163.9h7c0.3,1.2,1.2,2.4,4.4,2.4c2.3,0,3.1-0.6,3.1-1.5c0-0.9-0.7-1.1-4.5-1.9c-6.4-1.4-9-3.1-9-7
		c0-4.8,3.9-7.7,10.4-7.7c6.3,0,9.4,2.7,10.1,7h-7c-0.3-1.1-1.2-1.8-3.4-1.8c-2,0-3.1,0.6-3.1,1.6c0,0.8,0.7,0.9,3.3,1.4
		c6.7,1.5,10.3,2.8,10.3,7.4c0,5.2-4.5,7.7-10.3,7.7C1316.6,171.5,1312.2,168.6,1311.3,163.9z"/>
	<path class="st1" d="M1354.6,169.5c-1.3,0.9-4.2,2-7,2c-4.3,0-8.6-2.5-8.6-9.2v-7.2h-3.8v-6.5h3.8V144l6.9-1.5v6.1h7.5v6.5h-7.5
		v6.8c0,2.2,1.1,3.2,2.9,3.2c1.2,0,2.7-0.5,4.6-1.1L1354.6,169.5z"/>
	<path class="st1" d="M1372.8,148.2v7.1c-0.4,0-0.7-0.1-1.4-0.1c-3.3,0-6.4,1-6.4,6.1v9.7h-6.9v-22.3h6.9v3.5c1.4-2.7,3.7-4,6.5-4
		C1372.1,148.1,1372.5,148.1,1372.8,148.2z"/>
	<path class="st1" d="M1398.7,148.6l0,22.3h-6.9v-2.4c-1.4,1.7-3.5,2.9-6.3,2.9c-5.7,0-10.1-4.8-10.1-11.7c0-6.9,4.5-11.7,10.1-11.7
		c2.9,0,5,1.2,6.4,3v-2.5H1398.7z M1391.8,159.8c0-3.1-2-5.1-4.7-5.1c-2.7,0-4.7,2-4.7,5.1c0,3.1,2.1,5.1,4.7,5.1
		C1389.7,164.9,1391.8,162.9,1391.8,159.8z"/>
	<path class="st1" d="M1421,169.5c-1.3,0.9-4.2,2-7,2c-4.3,0-8.6-2.5-8.6-9.2v-7.2h-3.8v-6.5h3.8V144l6.9-1.5v6.1h7.5v6.5h-7.5v6.8
		c0,2.2,1.1,3.2,2.9,3.2c1.2,0,2.7-0.5,4.6-1.1L1421,169.5z"/>
	<path class="st1" d="M1446.3,159.8c0,6.7-5.2,11.7-11.8,11.7s-11.8-5-11.8-11.7c0-6.7,5.3-11.7,11.8-11.7S1446.3,153,1446.3,159.8z
		 M1429.8,159.8c0,3.1,2.1,5.1,4.7,5.1c2.7,0,4.7-2,4.7-5.1c0-3.1-2-5.1-4.7-5.1C1431.9,154.6,1429.8,156.7,1429.8,159.8z"/>
	<path class="st1" d="M1464.7,148.2v7.1c-0.4,0-0.7-0.1-1.4-0.1c-3.3,0-6.4,1-6.4,6.1v9.7h-6.9v-22.3h6.9v3.5c1.4-2.7,3.7-4,6.5-4
		C1464,148.1,1464.4,148.1,1464.7,148.2z"/>
</g>
<g id="bstext">
	<path class="st1" d="M827.5,162.6c0,5.4-4,8.3-9.8,8.3h-12.9v-28.4h12.9c5,0,8.8,2.4,8.8,7.5c0,2.8-1.2,4.4-3.3,5.6
		C826.1,156.6,827.5,159.4,827.5,162.6z M816.8,149.1h-5v4.3h5.3c1.6,0,2.4-0.7,2.4-2.2C819.5,149.4,818.4,149.1,816.8,149.1z
		 M820.4,162c0-1.6-0.6-2.4-2.9-2.4h-5.8v4.7h5.8C819.9,164.3,820.4,163.5,820.4,162z"/>
	<path class="st1" d="M854,159.8c0,6.7-5.2,11.7-11.8,11.7s-11.8-5-11.8-11.7c0-6.7,5.3-11.7,11.8-11.7S854,153,854,159.8z
		 M837.5,159.8c0,3.1,2.1,5.1,4.7,5.1c2.7,0,4.7-2,4.7-5.1c0-3.1-2-5.1-4.7-5.1C839.6,154.6,837.5,156.7,837.5,159.8z"/>
	<path class="st1" d="M880.8,159.8c0,6.7-5.2,11.7-11.8,11.7s-11.8-5-11.8-11.7c0-6.7,5.3-11.7,11.8-11.7S880.8,153,880.8,159.8z
		 M864.3,159.8c0,3.1,2.1,5.1,4.7,5.1c2.7,0,4.7-2,4.7-5.1c0-3.1-2-5.1-4.7-5.1C866.3,154.6,864.3,156.7,864.3,159.8z"/>
	<path class="st1" d="M902.2,169.5c-1.3,0.9-4.2,2-7,2c-4.3,0-8.6-2.5-8.6-9.2v-7.2h-3.8v-6.5h3.8V144l6.9-1.5v6.1h7.5v6.5h-7.5v6.8
		c0,2.2,1.1,3.2,2.9,3.2c1.2,0,2.7-0.5,4.6-1.1L902.2,169.5z"/>
	<path class="st1" d="M903.9,163.9h7c0.3,1.2,1.2,2.4,4.4,2.4c2.3,0,3.1-0.6,3.1-1.5c0-0.9-0.7-1.1-4.5-1.9c-6.4-1.4-9-3.1-9-7
		c0-4.8,3.9-7.7,10.4-7.7c6.3,0,9.4,2.7,10.1,7h-7c-0.3-1.1-1.2-1.8-3.4-1.8c-2,0-3.1,0.6-3.1,1.6c0,0.8,0.7,0.9,3.3,1.4
		c6.7,1.5,10.3,2.8,10.3,7.4c0,5.2-4.5,7.7-10.3,7.7C909.1,171.5,904.7,168.6,903.9,163.9z"/>
	<path class="st1" d="M947.2,169.5c-1.3,0.9-4.2,2-7,2c-4.3,0-8.6-2.5-8.6-9.2v-7.2h-3.8v-6.5h3.8V144l6.9-1.5v6.1h7.5v6.5h-7.5v6.8
		c0,2.2,1.1,3.2,2.9,3.2c1.2,0,2.7-0.5,4.6-1.1L947.2,169.5z"/>
	<path class="st1" d="M965.4,148.2v7.1c-0.4,0-0.7-0.1-1.4-0.1c-3.3,0-6.4,1-6.4,6.1v9.7h-6.9v-22.3h6.9v3.5c1.4-2.7,3.7-4,6.5-4
		C964.6,148.1,965,148.1,965.4,148.2z"/>
	<path class="st1" d="M991.2,148.6l0,22.3h-6.9v-2.4c-1.4,1.7-3.5,2.9-6.3,2.9c-5.7,0-10.1-4.8-10.1-11.7c0-6.9,4.5-11.7,10.1-11.7
		c2.9,0,5,1.2,6.4,3v-2.5H991.2z M984.3,159.8c0-3.1-2-5.1-4.7-5.1c-2.7,0-4.7,2-4.7,5.1c0,3.1,2.1,5.1,4.7,5.1
		C982.2,164.9,984.3,162.9,984.3,159.8z"/>
	<path class="st1" d="M1018.9,159.8c0,6.9-4.4,11.7-10.1,11.7c-2.9,0-4.9-1.2-6.4-2.9v12.6h-6.9v-32.5h6.9v2.5c1.4-1.8,3.5-3,6.4-3
		C1014.4,148.1,1018.9,152.8,1018.9,159.8z M1011.9,159.8c0-3.1-2-5.1-4.7-5.1c-2.7,0-4.7,2-4.7,5.1c0,3.1,2,5.1,4.7,5.1
		C1009.8,164.9,1011.9,162.9,1011.9,159.8z"/>
</g>
<g id="svgtext">
	<path class="st1" d="M1124.5,88.9c0,5.6-5.2,7.4-8.9,7.4c-7.1,0-9.8-4.1-10.2-8.1h5.7c0.5,1.9,1.6,2.8,4.5,2.8
		c2.3,0,3.3-0.7,3.3-1.9c0-1.4-1.4-1.5-5.3-2.3c-3.8-0.8-7.7-2.2-7.7-7c0-5.1,4.5-7.5,8.9-7.5c6.6,0,9,3.7,9.4,7.7h-5.7
		c-0.3-1.4-1.1-2.4-3.7-2.4c-2.5,0-3.3,1-3.3,2c0,1.1,1.1,1.2,3.3,1.7C1121.4,82.8,1124.5,84.2,1124.5,88.9z"/>
	<path class="st1" d="M1145,77.8l-6,18.2h-6.7l-6-18.2h6l3.3,11.8l3.3-11.8H1145z"/>
	<path class="st1" d="M1164.9,77.8v17.9c0,5.4-3.6,8.9-9.2,8.9c-4.4,0-8.8-2.2-9.4-7.2h5.8c0.4,1.8,1.9,2.2,3.4,2.2
		c2.5,0,3.7-1.2,3.7-3.8v-2.2c-1.2,1.4-2.8,2.4-5.2,2.4c-4.6,0-8.2-3.9-8.2-9.3c0-5.5,3.6-9.3,8.2-9.3c2.3,0,4,1,5.2,2.4v-2H1164.9z
		 M1159.2,86.7c0-2.3-1.7-4-3.8-4c-2.2,0-3.8,1.7-3.8,4c0,2.4,1.7,4,3.8,4C1157.6,90.7,1159.2,89.1,1159.2,86.7z"/>
</g>
<g id="seotext">
	<path class="st1" d="M829.5,380.7c0,5.6-5.2,7.4-8.9,7.4c-7.1,0-9.8-4.1-10.2-8.1h5.7c0.5,1.9,1.6,2.8,4.5,2.8
		c2.3,0,3.3-0.7,3.3-1.9c0-1.4-1.4-1.5-5.3-2.3c-3.8-0.8-7.7-2.2-7.7-7c0-5.1,4.5-7.5,8.9-7.5c6.6,0,9,3.7,9.4,7.7h-5.7
		c-0.3-1.4-1.1-2.4-3.7-2.4c-2.5,0-3.3,1-3.3,2c0,1.1,1.1,1.2,3.3,1.7C826.4,374.5,829.5,376,829.5,380.7z"/>
	<path class="st1" d="M838.6,369.9v3.4h9.4v5.3h-9.4v3.6H849v5.3h-16v-23.1h16v5.3H838.6z"/>
	<path class="st1" d="M875.7,376.1c0,6.8-5.3,12-12.1,12s-12.1-5.2-12.1-12s5.3-12,12.1-12S875.7,369.3,875.7,376.1z M857.1,376.1
		c0,3.9,2.7,6.6,6.4,6.6s6.4-2.8,6.4-6.6s-2.7-6.6-6.4-6.6S857.1,372.3,857.1,376.1z"/>
</g>
<g id="phptext">
	<path class="st1" d="M675.8,518.5c0,5.1-3.4,8.1-8.4,8.1h-4.3v7.1h-5.6v-23.1h9.9C672.3,510.6,675.8,513.4,675.8,518.5z
		 M670.1,518.6c0-1.7-1-2.6-2.9-2.6h-4.1v5.3h4.1C669.1,521.2,670.1,520.3,670.1,518.6z"/>
	<path class="st1" d="M699.6,510.6v23.1H694v-9.1H685v9.1h-5.6v-23.1h5.6v8.6h8.9v-8.6H699.6z"/>
	<path class="st1" d="M722.5,518.5c0,5.1-3.4,8.1-8.4,8.1h-4.3v7.1h-5.6v-23.1h9.9C719.1,510.6,722.5,513.4,722.5,518.5z
		 M716.8,518.6c0-1.7-1-2.6-2.9-2.6h-4.1v5.3h4.1C715.9,521.2,716.8,520.3,716.8,518.6z"/>
</g>
<g id="mysqltext">
	<path class="st1" d="M514.6,512.2v20.3h-5v-13.4l-5.1,7.7h-0.5l-5.1-7.7v13.4h-5v-20.3h5.6l4.7,7l4.7-7H514.6z"/>
	<path class="st1" d="M534.6,516.6l-10.2,23.2h-5.3l4.2-9.5l-6-13.8h5.3l3.4,8.3l3.4-8.3H534.6z"/>
	<path class="st1" d="M553.1,526.4c0,5-4.6,6.5-7.9,6.5c-6.2,0-8.6-3.6-9-7.1h5c0.5,1.7,1.4,2.5,4,2.5c2,0,2.9-0.6,2.9-1.7
		c0-1.2-1.2-1.3-4.6-2c-3.3-0.7-6.7-1.9-6.7-6.1c0-4.5,4-6.6,7.9-6.6c5.8,0,8,3.2,8.3,6.7h-5c-0.3-1.2-1-2.1-3.3-2.1
		c-2.2,0-2.9,0.9-2.9,1.8c0,1,0.9,1.1,2.9,1.5C550.3,521,553.1,522.2,553.1,526.4z"/>
	<path class="st1" d="M573.8,529.5l2.7,3.6l-3.8,2.8l-2.9-3.8c-1.2,0.5-2.6,0.7-4,0.7c-6,0-10.7-4.6-10.7-10.5s4.6-10.5,10.7-10.5
		c6,0,10.7,4.6,10.7,10.5C576.6,525.2,575.5,527.7,573.8,529.5z M565.9,528.2c3.3,0,5.7-2.4,5.7-5.8s-2.4-5.8-5.7-5.8
		s-5.7,2.4-5.7,5.8S562.6,528.2,565.9,528.2z"/>
	<path class="st1" d="M593,527.8v4.7h-13.2v-20.3h5v15.6H593z"/>
</g>
<g id="xmltext">
	<path class="st1" d="M526,95.7l-4.2-7.2l-4.1,7.2H511l7.4-12l-7.1-11.1h6.7l3.9,6.6l3.9-6.6h6.7l-7.2,11.5l7.4,11.6H526z"/>
	<path class="st1" d="M559.1,72.6v23.1h-5.6V80.4l-5.8,8.8h-0.5l-5.8-8.8v15.2h-5.6V72.6h6.4l5.3,7.9l5.3-7.9H559.1z"/>
	<path class="st1" d="M578.8,90.3v5.3h-15V72.6h5.6v17.8H578.8z"/>
</g>
<g id="ngtext">
	<path class="st1" d="M353.3,89.9h-6.8l-1.3,3.8h-4.7l6.6-18.2h5.6l6.6,18.2h-4.7L353.3,89.9z M351.8,85.6l-2-5.7l-2,5.7H351.8z"/>
	<path class="st1" d="M375.1,84.7v8.9h-4.4v-8c0-1.6-0.5-2.5-2.3-2.5c-1.7,0-2.6,0.9-2.6,2.8v7.6h-4.4V79.3h4.4v1.6
		c1-1.3,2.4-2,4.2-2C373.1,79,375.1,81.2,375.1,84.7z"/>
	<path class="st1" d="M392.3,79.3v14.1c0,4.2-2.8,7-7.2,7c-3.5,0-6.9-1.7-7.4-5.7h4.6c0.3,1.4,1.5,1.7,2.7,1.7c1.9,0,2.9-0.9,2.9-3
		v-1.7c-0.9,1.1-2.2,1.9-4.1,1.9c-3.7,0-6.5-3.1-6.5-7.4c0-4.3,2.9-7.4,6.5-7.4c1.8,0,3.2,0.8,4.1,1.9v-1.6H392.3z M387.8,86.3
		c0-1.8-1.3-3.1-3-3.1c-1.7,0-3,1.3-3,3.1c0,1.9,1.3,3.1,3,3.1C386.5,89.5,387.8,88.2,387.8,86.3z"/>
	<path class="st1" d="M408.4,79.3v14.3H404V92c-1,1.3-2.4,2-4.1,2c-3.2,0-5.1-2.2-5.1-5.7v-8.9h4.4v8c0,1.6,0.5,2.5,2.2,2.5
		c1.7,0,2.6-0.9,2.6-2.8v-7.6H408.4z"/>
	<path class="st1" d="M411,73.6h4.4v20H411V73.6z"/>
	<path class="st1" d="M432.8,79.3l0,14.3h-4.4v-1.5c-0.9,1.1-2.2,1.9-4,1.9c-3.7,0-6.5-3.1-6.5-7.5c0-4.4,2.9-7.5,6.4-7.5
		c1.8,0,3.2,0.8,4.1,2v-1.6H432.8z M428.4,86.5c0-2-1.3-3.3-3-3.3c-1.7,0-3,1.3-3,3.3c0,2,1.3,3.3,3,3.3
		C427.1,89.7,428.4,88.5,428.4,86.5z"/>
	<path class="st1" d="M444.8,79.1v4.5c-0.3,0-0.5-0.1-0.9-0.1c-2.1,0-4.1,0.6-4.1,3.9v6.2h-4.4V79.3h4.4v2.2
		c0.9-1.7,2.3-2.5,4.2-2.5C444.4,79,444.6,79,444.8,79.1z"/>
</g>
</svg>

